<?xml version="1.0" standalone="no"?>
<!DOCTYPE svg PUBLIC "-//W3C//DTD SVG 20010904//EN"
 "http://www.w3.org/TR/2001/REC-SVG-20010904/DTD/svg10.dtd">
<svg version="1.0" xmlns="http://www.w3.org/2000/svg"
 width="1024.000000pt" height="1024.000000pt" viewBox="0 0 1024.000000 1024.000000"
 preserveAspectRatio="xMidYMid meet">
<metadata>
Created by potrace 1.11, written by Peter Selinger 2001-2013
</metadata>
<g transform="translate(0.000000,1024.000000) scale(0.100000,-0.100000)"
fill="#000000" stroke="none">
<path d="M0 5860 l0 -4380 23 -1 22 0 -22 -11 -23 -11 0 -729 0 -728 1413 1
c852 0 1403 4 1390 9 -13 5 -23 16 -23 24 0 8 -10 16 -22 18 -24 3 -27 19 -13
52 6 13 3 23 -8 31 -9 7 -14 15 -10 18 3 4 -6 7 -20 7 -19 0 -27 5 -27 18 0
15 -6 17 -35 14 -30 -4 -36 -1 -45 22 -6 17 -14 24 -25 20 -23 -9 -7 53 21 81
23 23 24 23 34 5 6 -12 16 -17 25 -13 19 7 97 -13 145 -38 19 -9 43 -20 53
-23 9 -3 17 -12 17 -21 0 -23 -98 -21 -116 3 -12 15 -15 15 -24 2 -15 -23 -12
-60 6 -67 8 -3 26 -1 38 5 20 9 25 7 34 -11 6 -12 13 -31 15 -42 3 -18 5 -17
17 7 16 34 24 35 38 3 6 -14 16 -25 21 -25 5 0 11 -8 14 -19 3 -13 17 -20 47
-24 44 -6 64 -22 55 -45 -3 -8 10 -12 45 -12 28 0 50 2 50 5 0 3 -7 16 -16 29
-25 40 2 41 42 2 29 -28 45 -36 75 -36 31 0 36 3 32 19 -3 14 2 20 21 23 14 3
23 1 20 -4 -3 -4 3 -11 13 -14 10 -3 26 -10 35 -15 11 -5 1366 -9 3463 -9
l3445 0 0 2274 c0 1250 -3 2287 -6 2305 -5 23 -18 37 -51 56 -24 15 -48 37
-53 51 -5 13 -14 24 -20 24 -5 0 -10 6 -10 13 0 12 -29 47 -96 119 -19 20 -34
46 -34 57 0 14 -8 23 -25 27 -28 7 -32 19 -9 28 23 9 8 24 -37 36 -22 6 -37
15 -34 20 7 12 -5 41 -15 35 -5 -3 -11 -1 -15 5 -9 14 -42 13 -48 -2 -2 -7 0
-24 5 -38 9 -23 6 -22 -29 10 -21 19 -39 39 -42 44 -2 4 -12 16 -22 24 -11 9
-19 21 -19 26 0 5 -10 19 -22 31 -38 38 -63 69 -78 99 -8 16 -21 31 -30 34
-22 8 -30 23 -30 59 0 26 -5 34 -24 39 -22 5 -86 81 -86 102 0 5 -7 15 -15 22
-11 9 -12 17 -4 31 12 23 28 25 35 4 4 -8 19 -29 35 -46 16 -17 29 -35 29 -40
0 -5 13 -9 29 -9 35 0 46 -13 26 -30 -17 -14 -20 -40 -5 -40 27 0 100 -102
100 -139 0 -6 4 -11 8 -11 5 0 14 -18 21 -40 10 -33 16 -40 36 -40 14 0 25 -5
25 -11 0 -14 47 -59 61 -59 12 0 12 1 -7 39 -14 28 -14 34 -1 49 8 9 12 23 10
30 -7 18 -33 15 -33 -4 0 -25 -25 -9 -26 17 -2 50 -3 51 -28 45 -24 -6 -43 15
-30 35 3 5 -2 9 -10 9 -9 0 -16 4 -16 9 0 4 -14 22 -30 40 -26 27 -30 37 -24
65 3 20 1 36 -5 40 -6 4 -11 16 -11 27 0 10 -7 19 -15 19 -8 0 -15 -9 -15 -20
0 -25 -18 -26 -36 -2 -10 14 -10 20 3 35 9 9 13 18 10 18 -40 8 -58 21 -47 34
6 8 7 32 3 66 -7 49 -11 54 -36 57 -22 3 -27 -1 -28 -20 -1 -23 -1 -23 -8 2
-5 17 -3 31 6 42 9 10 12 25 8 38 -6 18 -13 21 -36 18 -23 -4 -29 -1 -29 13 0
10 -2 23 -3 31 -2 7 -2 10 0 6 6 -11 41 -10 47 1 4 5 -7 12 -24 16 -17 4 -28
10 -25 15 3 4 -6 11 -19 14 -29 7 -50 60 -41 99 5 17 1 29 -10 38 -59 48 -75
80 -75 146 0 20 -4 23 -20 18 -24 -8 -55 19 -46 40 3 8 1 17 -4 20 -6 4 -10
14 -10 23 0 9 -11 27 -24 41 -28 31 -46 82 -40 109 3 10 -2 24 -10 31 -9 8
-16 10 -16 5 0 -5 -10 11 -22 36 -12 25 -26 48 -31 51 -5 4 -4 9 2 13 19 12
12 44 -14 64 -14 11 -25 28 -25 37 0 24 -48 116 -71 138 -22 21 -22 22 -9 48
7 13 7 19 0 19 -14 0 -13 27 2 32 19 7 1 38 -22 38 -14 0 -20 7 -20 21 0 16 4
19 20 14 30 -9 25 12 -10 44 l-30 27 20 22 c24 25 26 42 5 42 -10 0 -15 10
-15 34 0 18 -7 39 -15 46 -8 7 -15 18 -15 25 0 8 -5 15 -11 17 -9 3 -9 10 0
26 14 26 7 42 -18 42 -20 0 -36 39 -22 53 6 6 19 3 32 -7 43 -30 79 -17 53 19
-12 16 -18 18 -34 7 -16 -10 -21 -9 -29 5 -5 10 -5 26 0 40 5 13 5 33 0 46 -5
13 -7 34 -4 48 3 16 -2 32 -12 42 -22 23 -15 49 18 65 33 16 35 34 5 55 -18
12 -20 18 -11 28 8 8 9 18 2 31 -12 23 -1 88 15 88 30 0 49 -27 43 -58 -6 -29
-4 -32 20 -32 24 0 25 2 20 38 -3 20 -9 48 -13 61 -6 21 -4 23 14 19 27 -7 32
0 38 54 3 24 8 52 11 63 4 11 7 28 7 39 1 27 34 46 46 26 10 -16 13 -1 13 69
-1 32 1 33 30 27 17 -4 34 -12 39 -19 5 -9 11 -7 22 8 17 23 12 35 -15 35 -10
0 -19 5 -19 10 0 6 15 10 33 10 26 0 35 6 48 32 16 34 29 44 72 53 15 3 27 11
27 18 0 6 11 36 25 65 17 36 30 52 43 52 11 0 25 7 32 15 7 9 19 14 26 11 8
-3 26 6 40 19 15 14 38 25 50 25 17 0 24 6 24 18 0 11 9 30 20 42 28 32 22 54
-15 58 -17 2 -27 0 -23 -4 12 -12 -12 -34 -38 -34 -12 0 -25 -4 -28 -9 -3 -4
-16 -6 -28 -4 -16 3 -31 -4 -47 -21 -14 -14 -31 -26 -38 -26 -8 0 -12 -4 -9
-8 2 -4 1 -14 -4 -22 -7 -12 -10 -12 -16 3 -3 9 -12 17 -20 17 -17 0 -44 -39
-37 -56 3 -8 -9 -17 -36 -25 -34 -10 -41 -16 -41 -38 0 -46 -35 -71 -57 -42
-11 14 -14 14 -23 1 -6 -8 -8 -25 -5 -37 7 -28 -15 -75 -31 -69 -7 3 -15 -2
-18 -10 -3 -8 -13 -14 -21 -14 -34 0 -60 50 -34 65 6 4 8 13 5 21 -3 7 4 18
14 24 11 6 20 17 20 24 0 7 13 39 29 71 25 49 30 54 36 36 4 -14 15 -21 31
-21 18 0 23 4 17 13 -16 26 -12 45 11 51 18 4 23 11 19 26 -4 15 0 20 16 20
11 0 21 6 21 14 0 10 13 14 50 13 65 -2 81 13 71 70 -5 23 -6 44 -4 47 2 2 16
-2 31 -10 38 -20 51 -17 62 11 10 26 16 28 64 25 16 -1 26 2 22 8 -3 5 3 17
14 27 18 16 20 16 26 1 8 -22 26 -20 53 5 15 14 30 19 46 15 14 -4 25 -1 27 6
5 13 28 2 28 -13 0 -6 -4 -7 -10 -4 -5 3 -15 3 -21 -1 -7 -4 -1 -15 16 -28 25
-20 27 -27 21 -59 -6 -32 -11 -37 -35 -37 -15 0 -38 -10 -51 -22 -23 -22 -23
-22 -3 -31 16 -7 26 -4 42 12 17 17 26 19 40 11 16 -8 23 -4 41 27 22 38 20
96 -4 91 -11 -3 -16 3 -16 21 0 5 20 12 44 15 35 6 44 10 39 23 -5 12 -1 14
15 9 12 -4 30 -2 42 4 18 10 20 8 21 -30 2 -53 3 -57 12 -66 13 -13 7 -32 -9
-30 -9 0 -19 -4 -21 -11 -7 -19 30 -20 64 -1 19 10 35 13 38 8 4 -6 15 -10 26
-10 10 0 19 -4 19 -10 0 -20 26 -9 50 20 30 36 70 41 70 9 0 -18 4 -20 28 -14
15 3 31 13 35 21 10 17 50 18 77 2 15 -10 23 -9 39 6 20 19 21 29 21 377 0
330 -1 359 -18 368 -16 10 -16 10 1 11 16 0 18 8 15 72 l-3 72 -45 11 c-28 7
-46 17 -48 27 -2 11 -15 18 -35 20 -24 2 -33 8 -35 26 -4 23 12 30 24 11 3 -6
21 -9 39 -7 27 3 31 1 27 -14 -3 -14 2 -18 25 -18 16 0 34 -5 41 -12 15 -15
17 449 2 468 -8 8 -8 14 0 19 5 3 10 24 10 45 l0 39 -41 -5 -41 -6 7 41 c6 34
4 41 -9 41 -19 0 -21 11 -4 28 9 9 -67 12 -344 12 -276 0 -357 -3 -361 -12 -4
-10 -6 -10 -6 0 -1 17 -41 15 -41 -3 0 -8 -4 -15 -9 -15 -5 0 -14 7 -21 15
-11 13 -95 15 -646 15 -610 0 -634 -1 -634 -18 0 -27 -34 -62 -60 -62 -18 0
-20 -3 -11 -13 8 -11 6 -20 -10 -38 -33 -39 -69 -99 -69 -115 0 -8 -13 -23
-30 -32 -16 -9 -29 -21 -28 -27 5 -23 -14 -65 -32 -75 -12 -6 -17 -16 -13 -26
3 -8 -4 -26 -17 -39 -16 -17 -26 -44 -32 -87 -10 -72 -28 -99 -52 -78 -13 10
-16 10 -16 -4 0 -9 -6 -25 -12 -36 -10 -16 -10 -24 0 -40 6 -11 12 -40 12 -65
0 -45 -12 -60 -24 -28 -5 13 -9 14 -19 4 -9 -9 -9 -14 2 -20 18 -12 27 -106
11 -116 -7 -4 -18 2 -27 15 -14 20 -17 21 -25 6 -5 -9 -6 -21 -2 -28 4 -7 3
-8 -4 -4 -7 4 -10 27 -7 59 7 92 16 126 35 132 15 5 17 13 13 39 -3 21 0 38 9
47 8 8 13 20 10 27 -2 6 1 12 6 12 6 0 13 21 16 48 10 90 18 122 32 122 7 0
16 -4 19 -10 9 -15 25 -12 25 5 0 8 -4 15 -10 15 -11 0 -13 52 -4 87 4 14 11
20 22 16 10 -4 13 -2 8 5 -7 12 23 83 42 95 6 4 12 17 12 27 0 11 11 27 24 36
14 8 26 25 28 37 2 12 12 26 24 32 11 6 19 16 16 24 -3 8 2 19 10 25 8 6 17
19 21 29 6 16 -188 17 -3988 17 l-3995 0 0 -4380z m8799 4278 c-13 -25 -21
-17 -26 24 -3 31 -3 31 17 13 15 -14 17 -22 9 -37z m1149 -7 c11 -6 10 -11 -3
-25 -9 -9 -21 -16 -26 -16 -5 0 -9 -10 -9 -23 0 -31 -9 -38 -31 -26 -28 14
-23 41 11 64 16 11 30 23 30 28 0 9 12 9 28 -2z m-1348 -53 c0 -18 -2 -20 -9
-8 -6 8 -7 18 -5 22 9 14 14 9 14 -14z m1380 -43 c0 -8 -6 -15 -14 -15 -17 0
-28 14 -19 24 12 12 33 6 33 -9z m-160 -275 c0 -5 -2 -10 -4 -10 -3 0 -8 5
-11 10 -3 6 -1 10 4 10 6 0 11 -4 11 -10z m-3863 -32 c-3 -8 -6 -5 -6 6 -1 11
2 17 5 13 3 -3 4 -12 1 -19z m0 -60 c-3 -8 -6 -5 -6 6 -1 11 2 17 5 13 3 -3 4
-12 1 -19z m3988 2 c-3 -5 -10 -10 -16 -10 -5 0 -9 5 -9 10 0 6 7 10 16 10 8
0 12 -4 9 -10z m89 -67 c10 -30 2 -29 -35 7 -21 19 -29 35 -25 46 6 14 9 13
30 -7 13 -13 26 -34 30 -46z m-1454 -84 c0 -12 -7 -19 -19 -19 -27 0 -34 15
-15 34 19 19 34 12 34 -15z m-100 -85 c0 -14 -21 -19 -33 -8 -8 8 16 33 26 27
4 -2 7 -11 7 -19z m-95 -94 c3 -5 1 -10 -4 -10 -6 0 -11 5 -11 10 0 6 2 10 4
10 3 0 8 -4 11 -10z m-495 -30 c0 -5 -5 -10 -11 -10 -5 0 -7 5 -4 10 3 6 8 10
11 10 2 0 4 -4 4 -10z m850 -10 c0 -5 -6 -10 -14 -10 -8 0 -18 5 -21 10 -3 6
3 10 14 10 12 0 21 -4 21 -10z m-1104 -17 c-3 -17 -26 -32 -26 -16 0 8 20 33
26 33 1 0 1 -8 0 -17z m5 -81 c-21 -3 -23 -8 -18 -39 7 -43 15 -52 27 -33 7
11 10 11 10 2 0 -7 -11 -17 -25 -22 -27 -10 -31 -20 -15 -36 8 -8 6 -15 -5
-24 -25 -21 -36 1 -37 74 0 57 3 68 23 85 19 15 28 17 44 8 19 -11 19 -12 -4
-15z m899 -12 c0 -5 -4 -10 -10 -10 -5 0 -10 5 -10 10 0 6 5 10 10 10 6 0 10
-4 10 -10z m-43 -36 c-3 -3 -12 -4 -19 -1 -8 3 -5 6 6 6 11 1 17 -2 13 -5z
m-677 -77 c-1 -21 -1 -21 -15 -3 -8 10 -12 23 -9 28 9 14 24 -2 24 -25z m-190
-96 c0 -15 -6 -35 -13 -44 -11 -16 -14 -16 -32 -3 -18 14 -18 15 -2 16 17 0
21 8 17 47 -1 17 3 21 14 17 9 -4 16 -18 16 -33z m-12 -83 c-1 -7 1 -23 5 -34
4 -12 3 -34 -3 -50 -8 -20 -8 -30 -1 -32 11 -4 16 -42 6 -42 -3 0 -13 8 -24
19 -10 10 -24 20 -30 22 -13 5 26 129 41 129 5 0 8 -6 6 -12z m2345 -37 c4 -1
7 -5 7 -11 0 -6 -35 -10 -82 -11 -46 -1 -94 -4 -108 -8 -24 -7 -80 14 -80 30
0 4 222 5 263 0z m-2173 -179 c0 -38 -12 -76 -19 -64 -9 16 0 103 10 96 5 -3
9 -17 9 -32z m2152 -2 c9 -22 13 -40 8 -40 -5 0 -12 -9 -15 -20 -8 -25 -29
-15 -22 11 3 11 1 17 -3 14 -15 -9 -28 28 -19 53 13 33 32 27 51 -18z m218 -6
c0 -22 -24 -31 -49 -18 l-23 12 21 11 c11 7 21 19 21 28 0 14 2 14 15 -3 8
-10 15 -24 15 -30z m-2530 1 c0 -19 -4 -35 -10 -35 -5 0 -10 16 -10 35 0 19 5
35 10 35 6 0 10 -16 10 -35z m-14 -71 c-3 -9 -6 -20 -6 -25 0 -5 -4 -9 -10 -9
-5 0 -10 11 -10 25 0 16 6 25 16 25 11 0 14 -5 10 -16z m1611 -57 c-5 -15 -29
-16 -34 -2 -2 6 6 11 18 12 12 1 19 -3 16 -10z m-1617 -43 c0 -8 7 -28 15 -45
18 -34 5 -72 -20 -63 -8 4 -12 10 -9 15 3 6 0 16 -6 24 -10 13 -12 68 -2 88 5
12 22 -2 22 -19z m1510 16 c0 -5 -6 -10 -14 -10 -8 0 -18 5 -21 10 -3 6 3 10
14 10 12 0 21 -4 21 -10z m-1312 -75 c3 -41 1 -47 -11 -37 -16 14 -30 69 -21
84 13 21 29 -2 32 -47z m1134 27 c-27 -4 -37 2 -27 17 4 8 13 7 28 -1 l22 -13
-23 -3z m-535 -34 c-3 -8 -6 -5 -6 6 -1 11 2 17 5 13 3 -3 4 -12 1 -19z m510
-4 c3 -7 -2 -20 -11 -29 -8 -9 -13 -22 -10 -29 9 -22 -75 -31 -95 -10 -12 12
-12 15 -2 9 11 -6 13 -4 8 8 -3 10 -2 17 3 17 6 0 10 -4 10 -10 0 -23 30 -8
36 18 3 15 7 32 9 39 5 15 45 5 52 -13z m283 -74 c0 -5 -2 -10 -4 -10 -3 0 -8
5 -11 10 -3 6 -1 10 4 10 6 0 11 -4 11 -10z m-1554 -15 c3 -8 1 -29 -5 -46 -6
-19 -7 -36 -2 -43 5 -6 12 -26 16 -43 5 -26 3 -33 -9 -33 -18 0 -38 33 -31 52
3 7 1 36 -4 63 -5 27 -7 53 -5 57 9 13 34 9 40 -7z m165 -168 c-8 -8 -11 -5
-11 9 0 27 14 41 18 19 2 -9 -1 -22 -7 -28z m1068 -74 c0 -32 -2 -34 -9 -17
-5 12 -14 25 -20 29 -9 6 -9 10 1 16 24 15 29 10 28 -28z m-1199 15 c0 -2 -7
-23 -14 -48 l-15 -45 0 48 c-1 35 3 47 14 47 8 0 15 -1 15 -2z m1110 -22 c0
-11 -19 -15 -25 -6 -3 5 1 10 9 10 9 0 16 -2 16 -4z m154 -47 c-8 -14 -34 -11
-34 4 0 8 3 17 7 20 9 9 34 -13 27 -24z m-60 -4 c-4 -8 -20 -30 -36 -47 -24
-26 -31 -29 -39 -17 -17 26 -5 52 31 65 47 17 50 17 44 -1z m-1174 -105 c0 -4
-7 -13 -15 -20 -13 -11 -15 -8 -15 13 0 19 4 25 15 21 8 -4 15 -10 15 -14z
m1150 -63 c0 -5 -9 -11 -20 -14 -11 -3 -20 -9 -20 -14 0 -17 -29 -9 -40 10
-14 27 -14 29 20 36 17 4 30 12 30 18 1 14 30 -22 30 -36z m-1130 -31 c0 -8
-4 -17 -9 -20 -10 -7 -23 19 -14 28 11 11 23 6 23 -8z m150 4 c0 -5 -4 -10
-10 -10 -5 0 -10 5 -10 10 0 6 5 10 10 10 6 0 10 -4 10 -10z m790 -60 c0 -5
-5 -10 -11 -10 -5 0 -7 5 -4 10 3 6 8 10 11 10 2 0 4 -4 4 -10z m-890 -37 c0
-5 -7 -16 -14 -26 -8 -10 -11 -27 -8 -39 3 -14 1 -19 -6 -14 -10 6 -14 63 -5
79 2 4 11 7 19 7 8 0 14 -3 14 -7z m160 -82 c0 -5 3 -16 6 -25 4 -11 1 -16
-10 -16 -10 0 -16 9 -16 25 0 14 5 25 10 25 6 0 10 -4 10 -9z m-130 -47 c0
-10 -24 -54 -30 -54 -10 0 -20 39 -14 55 4 11 44 10 44 -1z m17 -117 c14 -30
-1 -61 -17 -37 -12 18 -13 60 -2 60 5 0 14 -11 19 -23z m193 -55 c0 -4 -9 -8
-20 -9 -11 -1 -20 2 -20 8 0 5 9 9 20 9 11 0 20 -4 20 -8z m-160 -56 c0 -11 7
-27 16 -37 17 -18 13 -49 -5 -49 -12 0 -31 64 -31 105 0 23 3 27 10 15 5 -8
10 -24 10 -34z m630 -30 c0 -3 -4 -8 -10 -11 -5 -3 -10 -1 -10 4 0 6 5 11 10
11 6 0 10 -2 10 -4z m-580 -93 c0 -5 -5 -15 -10 -23 -8 -12 -10 -11 -10 8 0
12 5 22 10 22 6 0 10 -3 10 -7z m27 -95 c-3 -8 -6 -5 -6 6 -1 11 2 17 5 13 3
-3 4 -12 1 -19z m33 -93 c0 -8 -2 -15 -4 -15 -2 0 -6 7 -10 15 -3 8 -1 15 4
15 6 0 10 -7 10 -15z m70 -111 c0 -12 -4 -25 -9 -29 -11 -6 -53 83 -45 96 8
14 54 -42 54 -67z m600 -94 c0 -5 -5 -10 -11 -10 -5 0 -7 5 -4 10 3 6 8 10 11
10 2 0 4 -4 4 -10z m-480 -160 c0 -35 -14 -39 -30 -10 -12 23 -6 40 16 40 9 0
14 -11 14 -30z m625 11 c3 -5 1 -12 -5 -16 -5 -3 -10 1 -10 9 0 18 6 21 15 7z
m-575 -127 c0 -8 -4 -12 -10 -9 -5 3 -10 13 -10 21 0 8 5 12 10 9 6 -3 10 -13
10 -21z m48 -56 c-6 -18 -28 -21 -28 -4 0 9 7 16 16 16 9 0 14 -5 12 -12z m22
-64 c0 -16 -16 -19 -25 -4 -8 13 4 32 16 25 5 -4 9 -13 9 -21z m50 -98 c0 -4
-11 2 -24 15 -14 13 -22 28 -19 33 6 9 42 -32 43 -48z m600 4 c0 -5 -2 -10 -4
-10 -3 0 -8 5 -11 10 -3 6 -1 10 4 10 6 0 11 -4 11 -10z m34 -86 c3 -8 2 -12
-4 -9 -6 3 -10 10 -10 16 0 14 7 11 14 -7z m-564 -64 c0 -5 -2 -10 -4 -10 -3
0 -8 5 -11 10 -3 6 -1 10 4 10 6 0 11 -4 11 -10z m60 -90 c0 -5 -4 -10 -10
-10 -5 0 -10 5 -10 10 0 6 5 10 10 10 6 0 10 -4 10 -10z m575 0 c3 -5 -1 -10
-9 -10 -8 0 -18 5 -21 10 -3 6 1 10 9 10 8 0 18 -4 21 -10z m-525 -76 c0 -14
-4 -23 -10 -19 -5 3 -10 15 -10 26 0 10 5 19 10 19 6 0 10 -12 10 -26z m610
-50 c0 -14 -21 -19 -33 -7 -9 9 13 34 24 27 5 -3 9 -12 9 -20z m105 -34 c10
-11 16 -20 13 -20 -3 0 -13 9 -23 20 -10 11 -16 20 -13 20 3 0 13 -9 23 -20z
m-72 -15 c0 -6 -7 -11 -16 -13 -12 -3 -15 1 -11 13 7 17 25 17 27 0z m37 -70
c0 -18 -9 -23 -29 -18 -16 4 -17 9 -7 34 10 27 12 28 23 12 7 -9 13 -22 13
-28z m-5449 31 c2 -2 3 -74 1 -160 l-3 -156 -317 -2 -317 -3 1 -957 1 -958
-164 0 -163 0 0 960 0 960 -320 0 -320 0 0 160 0 160 798 0 c439 0 801 -2 803
-4z m1599 -156 l0 -160 160 0 160 0 0 -320 0 -320 -160 0 -160 0 0 -160 0
-160 -160 0 -160 0 0 -160 0 -160 160 0 160 0 0 -160 0 -160 160 0 160 0 0
-160 0 -160 -160 0 -160 0 0 160 0 160 -160 0 -160 0 0 160 0 160 -160 0 -160
0 0 160 0 160 -160 0 -160 0 0 -480 0 -480 -160 0 -160 0 0 1120 0 1120 640 0
640 0 0 -160z m960 0 l0 -160 160 0 160 0 0 -160 0 -160 160 0 160 0 0 -160 0
-160 160 0 160 0 0 -160 0 -160 160 0 160 0 0 640 0 640 160 0 160 0 1 -202
c0 -112 1 -237 2 -278 1 -41 0 -454 -1 -917 l-2 -843 -160 0 -160 0 0 320 0
320 -160 0 -160 0 0 160 0 160 -160 0 -160 0 0 160 0 160 -160 0 -160 0 0 160
0 160 -160 0 -160 0 0 -800 0 -800 -160 0 -160 0 0 1120 0 1120 160 0 160 0 0
-160z m2310 124 c0 -8 -4 -14 -9 -14 -11 0 -22 26 -14 34 9 9 23 -3 23 -20z
m30 -23 c0 -6 -4 -13 -10 -16 -5 -3 -10 1 -10 9 0 9 5 16 10 16 6 0 10 -4 10
-9z m600 -30 c0 -14 -12 -20 -26 -14 -22 8 -17 32 6 26 11 -3 20 -9 20 -12z
m70 -137 c0 -13 9 -28 20 -34 12 -6 25 -22 30 -36 5 -13 16 -24 25 -24 20 0
20 -49 -1 -57 -16 -6 -37 15 -28 29 3 4 -7 13 -21 18 -15 6 -32 23 -38 39 -6
17 -19 32 -29 34 -10 3 -18 12 -18 21 0 9 -4 16 -10 16 -17 0 -11 18 8 22 36
8 62 -4 62 -28z m-520 -80 c0 -8 -4 -12 -10 -9 -5 3 -10 10 -10 16 0 5 5 9 10
9 6 0 10 -7 10 -16z m90 -114 c0 -5 -4 -10 -10 -10 -5 0 -10 5 -10 10 0 6 5
10 10 10 6 0 10 -4 10 -10z m60 -100 c0 -5 -4 -10 -10 -10 -5 0 -10 5 -10 10
0 6 5 10 10 10 6 0 10 -4 10 -10z m74 -92 c9 -12 16 -26 16 -31 0 -11 -50 35
-50 46 0 15 19 6 34 -15z m66 -90 c0 -12 -28 -9 -35 2 -4 6 -4 18 -1 27 6 14
8 14 21 -3 8 -10 15 -22 15 -26z m130 -178 c0 -5 -2 -10 -4 -10 -3 0 -8 5 -11
10 -3 6 -1 10 4 10 6 0 11 -4 11 -10z m35 -30 c3 -5 2 -10 -4 -10 -5 0 -13 5
-16 10 -3 6 -2 10 4 10 5 0 13 -4 16 -10z m577 -65 c0 -5 -5 -11 -11 -13 -6
-2 -11 4 -11 13 0 9 5 15 11 13 6 -2 11 -8 11 -13z m-458 -80 c3 -8 1 -15 -4
-15 -6 0 -10 7 -10 15 0 8 2 15 4 15 2 0 6 -7 10 -15z m526 0 c10 -12 10 -15
-4 -15 -9 0 -16 7 -16 15 0 8 2 15 4 15 2 0 9 -7 16 -15z m64 -61 c24 -9 19
-22 -6 -19 -30 3 -30 3 -23 15 7 12 8 12 29 4z m-505 -68 c-3 -3 -11 5 -18 17
-13 21 -12 21 5 5 10 -10 16 -20 13 -22z m41 -32 c0 -8 7 -17 15 -20 8 -4 12
-10 9 -16 -7 -12 -54 30 -54 48 0 8 6 11 15 8 8 -4 15 -13 15 -20z m45 -54 c3
-5 1 -10 -4 -10 -6 0 -11 5 -11 10 0 6 2 10 4 10 3 0 8 -4 11 -10z m585 -51
c0 -6 -7 -8 -16 -5 -9 3 -18 6 -20 6 -2 0 -4 7 -4 15 0 13 4 14 20 5 11 -6 20
-16 20 -21z m-463 -101 c-3 -8 -6 -5 -6 6 -1 11 2 17 5 13 3 -3 4 -12 1 -19z
m47 -27 c3 -5 0 -14 -8 -20 -10 -9 -15 -8 -19 3 -9 22 15 37 27 17z m116 -137
c0 -8 -4 -12 -10 -9 -5 3 -10 10 -10 16 0 5 5 9 10 9 6 0 10 -7 10 -16z m160
-179 c0 -9 -6 -12 -15 -9 -8 4 -15 10 -15 15 0 5 7 9 15 9 8 0 15 -7 15 -15z
m74 -67 c21 -30 7 -46 -15 -17 -10 13 -19 27 -19 32 0 15 19 6 34 -15z m66
-89 c0 -6 -4 -7 -10 -4 -5 3 -10 11 -10 16 0 6 5 7 10 4 6 -3 10 -11 10 -16z
m90 -89 c0 -5 -2 -10 -4 -10 -3 0 -8 5 -11 10 -3 6 -1 10 4 10 6 0 11 -4 11
-10z m-6370 -1180 c0 -5 -2 -10 -4 -10 -3 0 -8 5 -11 10 -3 6 -1 10 4 10 6 0
11 -4 11 -10z m1678 -1262 c2 -5 14 -5 27 -2 26 7 45 -14 24 -27 -8 -5 -9 -9
-4 -9 13 0 -17 -20 -31 -20 -7 0 -14 9 -17 20 -3 11 -14 20 -24 20 -11 0 -29
9 -42 21 -21 20 -21 22 -4 34 15 12 21 11 43 -8 14 -12 26 -25 28 -29z m177
-97 c7 -12 -12 -24 -25 -16 -11 7 -4 25 10 25 5 0 11 -4 15 -9z m-5473 -45
c13 -19 9 -26 -17 -26 -14 0 -25 5 -25 10 0 6 -7 10 -15 10 -8 0 -15 7 -15 16
0 12 7 14 33 9 17 -4 35 -13 39 -19z m5530 -14 c-2 -13 3 -25 12 -28 27 -10 9
-20 -28 -16 -40 5 -43 12 -20 48 20 29 40 27 36 -4z m-5615 -7 c3 -9 3 -19 -1
-22 -7 -7 -36 16 -36 28 0 15 30 10 37 -6z m308 -25 c3 -5 1 -10 -4 -10 -6 0
-11 5 -11 10 0 6 2 10 4 10 3 0 8 -4 11 -10z m5395 -60 c0 -5 -2 -10 -4 -10
-3 0 -8 5 -11 10 -3 6 -1 10 4 10 6 0 11 -4 11 -10z m215 -90 c3 -5 1 -10 -4
-10 -6 0 -11 5 -11 10 0 6 2 10 4 10 3 0 8 -4 11 -10z m-2858 -22 c-3 -8 -6
-5 -6 6 -1 11 2 17 5 13 3 -3 4 -12 1 -19z m78 -64 c-18 -13 -20 -13 -23 2 -5
21 19 37 33 23 7 -7 4 -15 -10 -25z m2836 13 c-1 -12 -15 -9 -19 4 -3 6 1 10
8 8 6 -3 11 -8 11 -12z m225 -18 c12 -20 -12 -31 -30 -14 -24 24 -22 49 3 35
11 -5 23 -15 27 -21z m-162 -35 c9 -8 32 -18 51 -21 31 -5 51 -23 25 -23 -5 0
-10 -7 -10 -15 0 -8 -4 -15 -9 -15 -5 0 -11 7 -15 15 -3 8 -14 15 -24 15 -10
0 -31 14 -47 30 -27 28 -27 30 -8 30 12 0 29 -7 37 -16z m-2727 -178 c-10 -19
-11 -20 -15 -3 -2 10 -1 26 3 35 5 14 8 14 15 2 5 -8 4 -22 -3 -34z m3193 -12
c0 -11 -5 -14 -16 -10 -9 3 -20 6 -25 6 -5 0 -9 5 -9 10 0 6 11 10 25 10 16 0
25 -6 25 -16z m-3106 -37 c-5 -15 -7 -15 -22 -1 -13 13 -13 17 -1 24 18 12 31
-2 23 -23z m-2304 9 c0 -8 9 -18 20 -21 11 -3 20 -13 20 -21 0 -18 -14 -18
-30 1 -7 8 -19 15 -26 15 -8 0 -14 9 -14 20 0 11 7 20 15 20 8 0 15 -6 15 -14z
m275 -146 c3 -5 -1 -10 -9 -10 -9 0 -16 5 -16 10 0 6 4 10 9 10 6 0 13 -4 16
-10z m795 -155 c0 -8 -6 -15 -14 -15 -17 0 -28 14 -19 24 12 12 33 6 33 -9z
m35 -45 c3 -5 -1 -10 -9 -10 -9 0 -16 5 -16 10 0 6 4 10 9 10 6 0 13 -4 16
-10z m95 -37 c0 -10 5 -11 18 -5 30 15 47 8 50 -19 2 -17 11 -29 23 -32 16 -4
19 -14 19 -57 0 -37 -4 -50 -12 -47 -7 2 -12 12 -12 21 2 14 -5 16 -43 10 -42
-6 -45 -5 -39 14 9 27 -22 35 -48 13 -18 -15 -18 -14 -12 14 7 35 -6 55 -47
73 -35 15 -26 32 16 32 18 0 39 4 47 10 17 10 40 -5 40 -27z m-445 7 c3 -5 1
-10 -4 -10 -6 0 -11 5 -11 10 0 6 2 10 4 10 3 0 8 -4 11 -10z m1105 -260 c0
-5 -7 -10 -15 -10 -8 0 -15 5 -15 10 0 6 7 10 15 10 8 0 15 -4 15 -10z m1825
-110 c3 -5 2 -10 -4 -10 -5 0 -13 5 -16 10 -3 6 -2 10 4 10 5 0 13 -4 16 -10z"/>
<path d="M4380 5300 l0 -320 480 0 480 0 0 320 0 320 -480 0 -480 0 0 -320z"/>
<path d="M10210 10226 c0 -8 7 -16 15 -20 10 -4 15 1 15 14 0 11 -7 20 -15 20
-8 0 -15 -6 -15 -14z"/>
<path d="M7735 9670 c-3 -5 1 -10 9 -10 9 0 16 5 16 10 0 6 -4 10 -9 10 -6 0
-13 -4 -16 -10z"/>
<path d="M9718 8633 c7 -3 16 -2 19 1 4 3 -2 6 -13 5 -11 0 -14 -3 -6 -6z"/>
<path d="M9380 8620 c0 -5 5 -10 10 -10 6 0 10 5 10 10 0 6 -4 10 -10 10 -5 0
-10 -4 -10 -10z"/>
<path d="M9687 8565 c-18 -13 -18 -14 2 -25 15 -8 27 -8 41 0 18 10 19 13 6
25 -18 18 -26 18 -49 0z"/>
<path d="M9857 8562 c-17 -18 -17 -20 -1 -26 22 -8 26 -3 22 24 -3 22 -3 22
-21 2z"/>
<path d="M10060 8546 c0 -15 57 -43 67 -32 10 10 -28 46 -49 46 -10 0 -18 -6
-18 -14z"/>
<path d="M10160 8544 c0 -8 5 -12 10 -9 6 3 10 10 10 16 0 5 -4 9 -10 9 -5 0
-10 -7 -10 -16z"/>
<path d="M10231 8514 c0 -11 3 -14 6 -6 3 7 2 16 -1 19 -3 4 -6 -2 -5 -13z"/>
<path d="M9865 8490 c-3 -5 -1 -10 4 -10 6 0 11 5 11 10 0 6 -2 10 -4 10 -3 0
-8 -4 -11 -10z"/>
<path d="M10185 8490 c-3 -5 3 -10 14 -10 12 0 21 5 21 10 0 6 -6 10 -14 10
-8 0 -18 -4 -21 -10z"/>
<path d="M9836 8465 c-3 -8 -1 -15 4 -15 13 0 22 18 11 24 -5 3 -11 -1 -15 -9z"/>
<path d="M9715 8443 c4 -10 8 -25 9 -33 2 -23 23 -32 46 -20 22 12 18 30 -6
30 -7 0 -19 9 -26 20 -16 25 -33 27 -23 3z"/>
<path d="M10070 8450 c0 -5 5 -10 10 -10 6 0 10 5 10 10 0 6 -4 10 -10 10 -5
0 -10 -4 -10 -10z"/>
<path d="M9340 8340 c0 -5 5 -10 10 -10 6 0 10 5 10 10 0 6 -4 10 -10 10 -5 0
-10 -4 -10 -10z"/>
<path d="M8975 8310 c4 -6 11 -8 16 -5 14 9 11 15 -7 15 -8 0 -12 -5 -9 -10z"/>
<path d="M9040 8284 c0 -8 5 -12 10 -9 6 3 10 10 10 16 0 5 -4 9 -10 9 -5 0
-10 -7 -10 -16z"/>
<path d="M8943 8215 c-8 -22 6 -33 17 -15 13 20 12 30 0 30 -6 0 -13 -7 -17
-15z"/>
<path d="M9548 7963 c7 -3 16 -2 19 1 4 3 -2 6 -13 5 -11 0 -14 -3 -6 -6z"/>
<path d="M10180 7943 c0 -16 19 -37 26 -30 4 4 14 1 22 -5 11 -10 13 -8 10 12
-2 19 -10 26 -30 28 -16 2 -28 0 -28 -5z"/>
<path d="M9137 7914 c-4 -4 -7 -14 -7 -23 0 -11 3 -12 11 -4 6 6 10 16 7 23
-2 6 -7 8 -11 4z"/>
<path d="M10110 7904 c-14 -7 -33 -14 -43 -14 -11 0 -21 -9 -24 -19 -3 -12
-15 -21 -32 -23 -16 -2 -30 -12 -36 -26 -7 -16 -16 -21 -29 -18 -26 7 -96 -40
-96 -64 0 -25 -9 -25 -26 -2 -10 13 -15 14 -25 5 -10 -10 -10 -15 0 -27 19
-22 3 -39 -30 -32 -22 4 -31 1 -39 -14 -6 -12 -19 -19 -33 -17 -16 1 -22 -3
-22 -18 0 -12 -11 -25 -28 -32 -15 -7 -32 -25 -38 -40 -11 -30 -42 -63 -59
-63 -11 0 -14 -16 -12 -69 1 -19 -5 -39 -13 -45 -16 -13 -21 -44 -11 -67 5
-11 -2 -26 -18 -44 -24 -26 -25 -30 -10 -46 22 -25 28 -86 9 -97 -14 -7 -13
-13 7 -50 19 -36 20 -48 12 -80 -6 -21 -7 -51 -2 -67 5 -21 3 -34 -8 -46 -14
-16 -14 -18 5 -29 18 -9 21 -20 21 -76 0 -49 -3 -64 -12 -59 -7 4 -4 -1 7 -10
16 -13 17 -19 8 -34 -10 -16 -9 -20 3 -25 12 -5 14 -18 10 -61 -2 -31 -9 -62
-16 -70 -8 -10 -7 -18 7 -34 9 -12 23 -21 30 -21 7 0 13 -9 13 -20 0 -11 -5
-20 -12 -20 -9 0 -9 -3 0 -12 7 -7 12 -22 12 -35 0 -13 5 -23 10 -23 6 0 10
-7 10 -16 0 -8 -5 -12 -10 -9 -6 3 -17 -1 -26 -10 -15 -15 -15 -17 5 -22 11
-3 21 -11 21 -18 0 -7 7 -18 16 -26 8 -7 13 -20 11 -30 -5 -18 25 -51 56 -62
15 -6 16 -10 5 -27 -11 -18 -10 -23 5 -34 9 -7 17 -18 17 -23 0 -5 11 -20 25
-33 20 -19 22 -26 13 -38 -10 -11 -9 -17 5 -27 9 -7 17 -24 17 -39 0 -19 5
-26 20 -26 11 0 20 -4 20 -10 0 -5 -7 -7 -15 -4 -16 7 -19 -6 -9 -43 4 -13 13
-23 21 -23 7 0 22 -13 31 -30 19 -34 37 -40 27 -10 -5 15 -2 20 10 20 12 0 15
-5 10 -17 -15 -36 -17 -53 -8 -53 6 0 32 -21 59 -46 42 -39 47 -47 34 -57 -8
-7 -21 -22 -27 -35 -15 -26 -17 -76 -3 -67 6 3 10 14 10 25 0 10 7 21 16 24
21 8 26 8 20 -2 -2 -4 -1 -41 2 -82 7 -75 7 -75 35 -72 23 3 27 0 27 -23 0
-22 3 -25 20 -20 18 6 20 3 15 -18 -5 -19 -2 -25 13 -29 13 -4 21 -18 26 -47
4 -25 14 -46 26 -53 11 -7 20 -17 20 -23 0 -5 18 -26 40 -46 l40 -37 0 43 c0
27 -5 45 -14 48 -15 6 -10 57 5 57 5 0 9 25 9 56 0 52 -1 55 -22 50 l-23 -6
23 11 c22 12 22 14 22 226 0 135 -4 213 -10 213 -5 0 -10 -7 -10 -15 0 -8 -5
-15 -10 -15 -13 0 -32 48 -24 61 3 5 -5 13 -18 18 -21 8 -58 44 -58 56 0 3 10
4 22 2 17 -1 24 4 26 20 3 22 4 22 29 6 19 -13 24 -22 19 -43 -5 -25 8 -50 26
-50 4 0 8 434 8 965 0 637 -3 965 -10 965 -5 0 -10 -11 -10 -25 0 -30 -25 -34
-40 -5 -6 12 -16 17 -26 13 -11 -4 -12 -9 -5 -16 6 -6 11 -19 11 -29 0 -10 6
-18 13 -18 9 0 9 -2 -1 -8 -7 -5 -26 -7 -42 -4 -24 3 -30 9 -30 28 0 17 -7 25
-24 30 -21 5 -22 8 -12 30 7 14 20 24 33 24 30 0 53 26 53 61 0 32 -4 33 -40
13z m-51 -158 c9 -11 6 -20 -14 -41 -15 -14 -24 -32 -21 -40 2 -7 -2 -19 -10
-25 -16 -14 -18 -46 -4 -63 41 -48 50 -62 50 -74 0 -22 -28 -14 -32 9 -2 12
-13 27 -24 33 -12 6 -29 16 -37 23 -17 14 -47 6 -47 -13 0 -7 7 -16 16 -19 29
-11 2 -28 -37 -23 -39 5 -47 0 -30 -18 5 -6 12 -20 16 -32 4 -17 2 -23 -9 -23
-8 0 -18 -9 -21 -21 -5 -16 -12 -19 -31 -15 -26 7 -30 -4 -14 -34 7 -13 7 -21
0 -25 -5 -3 -10 -14 -10 -23 0 -9 -16 -30 -35 -46 -19 -16 -35 -35 -35 -43 0
-7 -11 -13 -25 -13 -16 0 -25 6 -25 15 0 8 7 15 15 15 19 0 47 54 39 74 -3 9
2 28 12 44 10 15 17 39 15 53 -1 17 5 32 16 41 24 17 43 53 43 78 0 11 7 20
16 20 8 0 12 5 9 10 -3 6 1 13 9 16 9 3 16 12 16 18 0 16 53 76 67 76 6 0 13
-7 17 -15 3 -8 10 -15 16 -15 5 0 10 7 10 15 0 8 -7 15 -15 15 -8 0 -15 9 -15
20 0 13 7 20 20 20 12 0 30 9 42 20 26 24 32 25 47 6z m-75 -291 c8 -8 19 -15
24 -15 13 0 24 -29 16 -42 -3 -5 -12 -7 -20 -4 -8 3 -14 1 -14 -3 0 -5 6 -11
14 -14 12 -5 13 -11 3 -36 -6 -17 -15 -31 -18 -31 -4 0 -10 -13 -14 -30 -4
-16 -11 -32 -16 -35 -5 -4 -9 -17 -9 -30 0 -23 -17 -35 -51 -35 -12 0 -19 -7
-19 -20 0 -13 -7 -20 -20 -20 -18 0 -20 6 -18 39 1 22 -4 46 -11 55 -12 14
-10 16 18 16 32 0 41 16 19 38 -9 9 -9 15 0 24 15 15 16 48 2 48 -5 0 -10 4
-10 9 0 5 15 6 34 1 31 -7 33 -6 28 14 -3 11 -12 26 -20 32 -12 9 -8 14 19 32
41 26 43 26 63 7z m12 -252 c-10 -10 -19 5 -10 18 6 11 8 11 12 0 2 -7 1 -15
-2 -18z m-236 -83 c0 -14 -5 -20 -16 -18 -8 2 -14 5 -13 8 1 3 -3 15 -10 28
-6 12 -9 27 -5 33 9 15 44 -25 44 -51z m190 8 c0 -4 -7 -8 -15 -8 -10 0 -15
10 -15 28 1 26 1 26 15 8 8 -11 15 -23 15 -28z m-130 -12 c0 -3 -4 -8 -10 -11
-5 -3 -10 -1 -10 4 0 6 5 11 10 11 6 0 10 -2 10 -4z m76 -33 c19 -26 17 -33
-10 -33 -31 0 -56 -28 -36 -40 8 -5 18 -6 22 -4 4 3 8 1 8 -5 0 -19 -18 -20
-34 -2 -15 17 -16 24 -5 60 13 44 33 53 55 24z m-155 -15 c1 -7 0 -25 -1 -40
-2 -30 8 -36 28 -16 16 16 15 3 0 -22 -10 -16 -10 -24 0 -40 7 -11 8 -20 3
-20 -5 0 -12 6 -15 13 -3 8 -9 6 -20 -7 -9 -11 -19 -17 -22 -13 -4 3 1 13 10
22 18 18 21 41 7 50 -15 9 -41 66 -35 76 8 14 44 11 45 -3z m79 -93 c0 -8 -4
-15 -10 -15 -5 0 -10 7 -10 15 0 8 5 15 10 15 6 0 10 -7 10 -15z m90 -49 c0
-3 -4 -8 -10 -11 -5 -3 -10 -1 -10 4 0 6 5 11 10 11 6 0 10 -2 10 -4z m-70
-39 c-1 -21 -1 -21 -15 -3 -8 10 -12 23 -9 28 9 14 24 -2 24 -25z m-67 -26 c4
-1 7 -8 7 -16 0 -19 -34 -20 -49 -2 -13 17 -6 26 17 22 9 -2 20 -4 25 -4z
m146 -38 c3 -2 -3 -11 -12 -20 -11 -11 -17 -13 -17 -5 0 7 -12 12 -26 12 -22
0 -25 2 -14 15 11 13 54 12 69 -2z m-69 -51 c0 -2 -7 -1 -16 2 -27 10 -36 -4
-19 -30 12 -19 13 -24 2 -24 -7 0 -19 6 -25 12 -10 10 -15 10 -22 -2 -14 -22
-12 -5 4 32 8 18 17 42 21 53 5 18 8 17 30 -10 14 -15 25 -30 25 -33z m30 -27
c0 -7 7 -15 15 -19 17 -6 21 -36 5 -36 -5 0 -10 4 -10 8 0 5 -9 19 -20 32 -11
12 -17 27 -14 31 7 12 24 1 24 -16z m-13 -104 c9 -16 29 -37 44 -47 23 -15 26
-22 18 -41 -6 -17 -4 -33 5 -52 23 -43 11 -71 -30 -71 -28 0 -34 4 -34 20 0
11 -7 23 -15 26 -8 4 -15 15 -15 25 0 10 -6 19 -14 19 -15 0 -27 48 -23 98 2
17 0 32 -5 32 -4 0 -8 5 -8 10 0 6 14 10 30 10 24 0 35 -7 47 -29z m87 -276
c3 -8 3 -23 0 -32 -5 -17 -5 -17 6 0 12 19 40 23 56 7 11 -11 6 -80 -6 -80 -4
0 -19 9 -33 20 -14 11 -29 20 -34 20 -11 0 -53 55 -53 70 0 16 57 12 64 -5z
m-14 -85 c0 -5 -5 -10 -11 -10 -5 0 -7 5 -4 10 3 6 8 10 11 10 2 0 4 -4 4 -10z
m60 -65 c9 -24 40 -36 40 -15 0 6 5 10 10 10 12 0 9 -22 -5 -33 -6 -6 -6 -10
3 -14 6 -2 12 -9 12 -14 0 -17 -23 -9 -46 16 -27 29 -34 31 -34 10 0 -16 -12
-20 -23 -8 -4 3 0 14 9 24 9 10 14 25 11 34 -4 8 -2 15 4 15 5 0 14 -11 19
-25z m-340 -4 c0 -6 -4 -13 -10 -16 -5 -3 -10 1 -10 9 0 9 5 16 10 16 6 0 10
-4 10 -9z m440 -90 c0 -5 -9 -13 -20 -16 -12 -4 -20 -15 -20 -28 0 -16 -3 -18
-9 -9 -12 19 10 62 32 62 9 0 17 -4 17 -9z m58 -91 c25 0 11 -28 -18 -39 -33
-11 -33 -11 -44 40 -8 36 3 43 29 19 12 -11 27 -20 33 -20z m-384 -25 c3 -8 1
-15 -4 -15 -6 0 -10 7 -10 15 0 8 2 15 4 15 2 0 6 -7 10 -15z m413 -511 c6
-13 7 -24 2 -24 -10 0 -49 40 -49 51 0 16 36 -4 47 -27z m-139 7 c13 -12 20
-25 16 -35 -5 -14 -8 -14 -30 1 -13 8 -24 24 -24 34 0 24 9 24 38 0z m112
-142 c0 -11 -27 -12 -34 0 -3 4 -3 11 0 14 8 8 34 -3 34 -14z m48 -52 c2 -10
-3 -17 -12 -17 -18 0 -29 16 -21 31 9 14 29 6 33 -14z"/>
<path d="M9800 7444 c0 -8 5 -12 10 -9 6 3 10 10 10 16 0 5 -4 9 -10 9 -5 0
-10 -7 -10 -16z"/>
<path d="M9860 6572 c0 -34 14 -43 24 -15 4 9 0 23 -9 32 -13 14 -15 12 -15
-17z"/>
<path d="M10220 7850 c-9 -16 -8 -20 5 -20 8 0 15 9 15 20 0 11 -2 20 -5 20
-2 0 -9 -9 -15 -20z"/>
<path d="M9070 7819 c0 -11 5 -17 10 -14 6 3 10 13 10 21 0 8 -4 14 -10 14 -5
0 -10 -9 -10 -21z"/>
<path d="M9800 7785 c0 -8 5 -15 10 -15 6 0 10 7 10 15 0 8 -4 15 -10 15 -5 0
-10 -7 -10 -15z"/>
<path d="M8920 7775 c0 -8 4 -15 9 -15 5 0 11 7 15 15 3 9 0 15 -9 15 -8 0
-15 -7 -15 -15z"/>
<path d="M9710 7730 c0 -5 5 -10 10 -10 6 0 10 5 10 10 0 6 -4 10 -10 10 -5 0
-10 -4 -10 -10z"/>
<path d="M8801 7651 c-1 -24 2 -32 9 -25 7 7 7 19 1 35 -9 23 -10 22 -10 -10z"/>
<path d="M8800 7546 c0 -9 5 -16 10 -16 6 0 10 4 10 9 0 6 -4 13 -10 16 -5 3
-10 -1 -10 -9z"/>
<path d="M8977 7454 c-15 -15 -7 -45 11 -42 9 2 17 12 17 22 0 20 -16 31 -28
20z"/>
<path d="M8951 7384 c0 -11 3 -14 6 -6 3 7 2 16 -1 19 -3 4 -6 -2 -5 -13z"/>
<path d="M8830 7240 c0 -5 5 -10 10 -10 6 0 10 5 10 10 0 6 -4 10 -10 10 -5 0
-10 -4 -10 -10z"/>
<path d="M8945 7131 c-3 -5 -1 -12 5 -16 5 -3 10 1 10 9 0 18 -6 21 -15 7z"/>
<path d="M9171 6994 c0 -11 3 -14 6 -6 3 7 2 16 -1 19 -3 4 -6 -2 -5 -13z"/>
<path d="M8990 6910 c0 -17 50 -24 65 -9 12 12 8 14 -25 17 -22 1 -40 -2 -40
-8z"/>
<path d="M9214 6714 c3 -9 6 -22 6 -30 0 -8 16 -31 35 -51 27 -27 36 -32 40
-21 8 20 -33 98 -51 98 -8 0 -14 5 -14 10 0 6 -5 10 -11 10 -6 0 -8 -7 -5 -16z"/>
<path d="M9070 6696 c0 -8 6 -16 13 -19 9 -3 9 -7 0 -19 -15 -17 -7 -28 19
-28 23 0 24 33 1 60 -20 23 -33 26 -33 6z"/>
<path d="M9149 6578 c-9 -32 -7 -55 7 -65 14 -10 15 -17 5 -44 -12 -35 1 -64
26 -55 7 3 13 -1 13 -10 0 -12 5 -10 19 7 13 17 16 28 9 36 -5 7 -7 17 -3 23
3 5 1 10 -4 10 -6 0 -11 7 -11 15 0 9 -9 15 -21 15 -19 0 -20 4 -15 35 6 28 4
35 -9 35 -8 0 -15 -1 -16 -2z"/>
<path d="M9290 6551 c0 -6 4 -13 10 -16 5 -3 9 -21 8 -39 -1 -22 8 -45 25 -67
20 -27 23 -38 15 -53 -14 -25 9 -48 40 -39 18 4 22 12 20 39 -1 18 -6 30 -10
28 -5 -3 -15 10 -23 29 -8 19 -21 37 -30 41 -11 4 -14 13 -10 25 7 23 -14 61
-32 61 -7 0 -13 -4 -13 -9z"/>
<path d="M9212 6339 c-6 -15 -4 -32 5 -48 7 -14 13 -36 13 -48 0 -18 6 -23 26
-23 19 0 25 4 20 15 -4 10 2 19 16 24 15 5 18 10 9 15 -6 4 -19 2 -27 -5 -22
-18 -27 -5 -13 35 14 39 14 41 -19 50 -17 6 -24 3 -30 -15z"/>
<path d="M9396 6298 c-9 -35 -8 -38 22 -49 27 -11 27 -11 5 -22 -18 -8 -21
-15 -16 -36 3 -14 12 -33 19 -42 8 -8 14 -28 14 -42 0 -15 6 -27 13 -27 6 0
25 -29 42 -65 16 -36 33 -65 37 -65 4 0 8 -7 8 -15 0 -8 4 -15 10 -15 5 0 13
-12 16 -27 4 -16 16 -34 26 -41 10 -7 18 -18 18 -25 0 -11 49 -88 63 -98 5 -4
8 -17 7 -30 -4 -42 -1 -49 20 -49 11 0 23 -7 26 -15 3 -8 15 -17 26 -21 19 -6
19 -6 1 -26 -13 -15 -15 -22 -5 -25 6 -3 12 -13 12 -24 0 -22 12 -24 42 -8 19
10 20 9 16 -19 -3 -24 -1 -28 14 -24 21 5 25 -17 6 -36 -9 -9 -7 -12 10 -12
16 0 23 8 28 36 6 31 3 40 -17 55 -13 10 -29 19 -35 19 -14 0 -27 30 -14 30
17 0 11 36 -10 55 -10 9 -24 33 -30 51 -7 19 -16 34 -21 34 -5 0 -9 9 -9 19 0
11 -4 23 -10 26 -5 3 -10 15 -10 25 0 10 -18 39 -39 64 -22 25 -42 59 -46 76
-4 20 -17 36 -36 46 -21 11 -30 22 -28 37 1 12 -6 39 -15 59 -9 21 -16 41 -16
47 0 5 -11 16 -24 24 -30 20 -68 98 -55 114 7 7 1 20 -16 37 -32 32 -41 32
-49 4z"/>
<path d="M9296 6150 c19 -7 40 -51 36 -72 -1 -5 3 -8 8 -8 18 0 10 -18 -10
-23 -21 -5 -28 -27 -9 -27 18 0 64 -53 50 -58 -15 -5 -14 -27 3 -41 11 -9 17
-8 28 8 18 25 28 17 28 -19 0 -15 9 -35 19 -44 11 -10 17 -24 15 -31 -8 -19
12 -27 26 -10 7 8 16 15 21 15 16 0 10 -43 -8 -63 -17 -18 -17 -19 0 -32 9 -7
15 -19 12 -27 -4 -9 6 -19 30 -28 26 -10 35 -20 35 -37 0 -13 6 -23 13 -23 8
0 19 -11 25 -25 7 -14 20 -25 31 -25 11 0 22 -4 26 -9 7 -13 -28 -23 -50 -15
-12 5 -16 3 -13 -7 2 -7 27 -18 54 -24 27 -6 43 -13 35 -16 -20 -7 -5 -46 20
-52 25 -7 36 17 18 40 -8 9 -13 24 -11 34 2 10 -6 23 -18 29 -12 6 -19 17 -17
23 2 7 -11 22 -30 35 -18 12 -33 28 -33 35 0 16 -34 45 -66 58 -26 9 -24 29 2
29 22 0 16 34 -10 59 -14 13 -22 29 -20 36 3 7 -11 29 -32 49 -20 20 -32 36
-25 36 19 0 -20 60 -47 73 -12 6 -25 22 -28 36 -10 47 -14 53 -30 47 -13 -5
-14 -1 -9 24 4 17 3 30 -2 29 -21 -4 -33 2 -33 16 0 10 -9 15 -27 14 -26 0
-26 -1 -7 -9z"/>
<path d="M9805 5789 c-4 -6 -5 -13 -2 -16 7 -7 27 6 27 18 0 12 -17 12 -25 -2z"/>
<path d="M9880 5670 c0 -5 7 -10 15 -10 8 0 15 5 15 10 0 6 -7 10 -15 10 -8 0
-15 -4 -15 -10z"/>
<path d="M9531 5596 c-9 -11 -9 -19 1 -35 19 -30 25 -26 20 14 -5 40 -5 40
-21 21z"/>
<path d="M9760 5434 c0 -31 23 -28 28 4 2 15 -2 22 -12 22 -11 0 -16 -9 -16
-26z"/>
<path d="M9896 5445 c-18 -13 -18 -15 5 -62 25 -52 44 -72 71 -73 26 0 31 19
10 38 -11 9 -28 38 -37 65 -19 52 -21 53 -49 32z"/>
<path d="M9610 5405 c0 -9 7 -18 15 -21 8 -4 15 -12 15 -19 0 -19 13 -25 29
-15 11 6 9 12 -7 26 -16 13 -19 21 -10 31 8 10 5 13 -16 13 -17 0 -26 -5 -26
-15z"/>
<path d="M9795 5390 c3 -5 10 -10 16 -10 5 0 9 5 9 10 0 6 -7 10 -16 10 -8 0
-12 -4 -9 -10z"/>
<path d="M9996 5285 c-11 -31 13 -65 47 -65 21 0 22 23 1 55 -18 28 -39 32
-48 10z"/>
<path d="M9872 5220 c0 -14 2 -19 5 -12 2 6 2 18 0 25 -3 6 -5 1 -5 -13z"/>
<path d="M9827 5129 c-4 -15 -1 -19 11 -17 21 4 29 38 9 38 -8 0 -17 -9 -20
-21z"/>
<path d="M10102 5138 c-8 -8 -8 -17 -1 -30 10 -19 12 -19 30 -2 14 13 16 20 8
31 -14 16 -22 16 -37 1z"/>
<path d="M9890 5050 c0 -5 5 -10 11 -10 5 0 7 5 4 10 -3 6 -8 10 -11 10 -2 0
-4 -4 -4 -10z"/>
<path d="M10210 5000 c8 -5 20 -10 25 -10 6 0 3 5 -5 10 -8 5 -19 10 -25 10
-5 0 -3 -5 5 -10z"/>
<path d="M10130 4766 c0 -9 5 -16 10 -16 6 0 10 4 10 9 0 6 -4 13 -10 16 -5 3
-10 -1 -10 -9z"/>
<path d="M10218 4663 c7 -3 16 -2 19 1 4 3 -2 6 -13 5 -11 0 -14 -3 -6 -6z"/>
</g>
</svg>
