<?xml version="1.0" standalone="no"?>
<!DOCTYPE svg PUBLIC "-//W3C//DTD SVG 20010904//EN"
 "http://www.w3.org/TR/2001/REC-SVG-20010904/DTD/svg10.dtd">
<svg version="1.0" xmlns="http://www.w3.org/2000/svg"
 width="1024.000000pt" height="1024.000000pt" viewBox="0 0 1024.000000 1024.000000"
 preserveAspectRatio="xMidYMid meet">
<metadata>
Created by potrace 1.11, written by Peter Selinger 2001-2013
</metadata>
<g transform="translate(0.000000,1024.000000) scale(0.100000,-0.100000)"
fill="#000000" stroke="none">
<path d="M0 5120 l0 -5120 5120 0 5120 0 0 5120 0 5120 -5120 0 -5120 0 0
-5120z m3738 658 l3 -158 -321 0 -320 0 0 -960 0 -960 -155 0 -155 0 0 960 0
960 -320 0 -320 0 0 160 0 160 793 -2 792 -3 3 -157z m1600 0 l3 -158 -481 0
-480 0 0 -320 0 -320 478 -2 477 -3 3 -157 3 -158 -161 0 -160 0 0 -160 0
-160 -155 0 -155 0 0 160 0 160 -165 0 -165 0 0 -480 0 -480 -155 0 -155 0 0
1120 0 1120 633 -2 632 -3 3 -157z m959 2 l2 -155 158 -5 158 -5 3 -157 3
-157 -161 -3 -160 -3 -3 -795 -2 -795 -155 0 -155 0 -1 1110 c-1 611 0 1113 3
1118 2 4 73 6 156 5 l152 -3 2 -155z m1598 -960 l0 -1115 -155 0 -155 0 -1
315 -1 315 -158 5 -157 5 -2 155 -1 155 160 3 160 2 -3 626 c-2 344 -1 632 2
640 5 12 33 14 158 12 l153 -3 0 -1115z m-2237 478 l2 -318 -155 0 -155 0 0
320 0 321 153 -3 152 -3 3 -317z m1277 -158 l0 -155 -155 0 -155 0 0 150 c0
83 1 153 3 158 2 4 72 6 155 5 l152 -3 0 -155z m320 -320 l0 -155 -155 0 -155
0 -1 150 c-2 82 0 153 3 158 2 4 73 6 156 5 l152 -3 0 -155z m-1917 -642 l3
-158 -156 0 -155 0 0 160 0 161 153 -3 152 -3 3 -157z m320 -320 l3 -158 -156
0 -155 0 0 160 0 161 153 -3 152 -3 3 -157z"/>
</g>
</svg>
